<svg xmlns="http://www.w3.org/2000/svg" xmlns:xlink="http://www.w3.org/1999/xlink" width="72.95mm" height="58.72mm" viewBox="0 0 206.78 166.44"><defs><clipPath id="a" transform="translate(0 0)"><rect width="206.78" height="166.44" fill="none"/></clipPath></defs><g clip-path="url(#a)"><path d="M62,75.27c-.25.12-.8-.45-.93-.68a20.8,20.8,0,0,1-1.18-2.53A57.94,57.94,0,0,1,56.63,60.6c0-.21-.23-1.72.17-1.91s.8,1.3.87,1.46a59.51,59.51,0,0,1,4.45,13.16c.08.46.17,1.83-.09,2" transform="translate(0 0)" fill="#0c5327"/><path d="M62.32,58.38c.21.14.33.69.44,1a51.14,51.14,0,0,1,2.58,14.13c0,.39-.28,1.1-.57,1.19s-.76-.53-.85-.87a63.56,63.56,0,0,1-2.17-14.64,2.35,2.35,0,0,1,.1-.74.35.35,0,0,1,.47-.11" transform="translate(0 0)" fill="#0c5327"/><path d="M53.26,62.8A23,23,0,0,1,54.79,65a72.56,72.56,0,0,1,5.89,11.08c.21.49.55,1.62.1,1.7s-1.09-.54-1.39-1a61.78,61.78,0,0,1-6.21-12c-.24-.57-.59-1.59-.44-1.82s.29-.4.52-.25" transform="translate(0 0)" fill="#0c5327"/><path d="M67.86,60.51a2.43,2.43,0,0,1,.24,1.18,60.69,60.69,0,0,1-.3,14.19c0,.17-.37,1.63-.7,1.6s-.74-.92-.76-1.21a33.84,33.84,0,0,1-.11-4.15c.19-3.38.45-6.76.71-10.15a4.18,4.18,0,0,1,.28-1.36c.08-.14.43-.35.64-.1" transform="translate(0 0)" fill="#0c5327"/><path d="M66.28,115.57a57.64,57.64,0,0,1-5.08-6.16c-2-3.24-3.66-6.73-5.46-10.12a1.82,1.82,0,0,1-.27-.78c0-.31-.1-.65.24-.92s.68.35.86.55c1.85,2,3.61,3.87,5.37,6a37.4,37.4,0,0,1,6.08,10l0,.09c.26.57.7,1.21.11,1.79s-1.2.08-1.88-.38" transform="translate(0 0)" fill="#8dbe22"/><path d="M41.33,92.28a61.36,61.36,0,0,1,9,8.65,79.18,79.18,0,0,1,5.43,7.32A23.79,23.79,0,0,1,57.88,113a1.67,1.67,0,0,1-.31,1.55,2.18,2.18,0,0,1-1.82,0,15,15,0,0,1-3.07-2.11,51,51,0,0,1-9.86-11.85c-1.73-3-3.18-6.05-4.73-9.1-.15-.3-.34-.72-.1-1.06s.79.11,1.11.29c.72.42,1.38.92,2.23,1.5" transform="translate(0 0)" fill="#8dbe22"/><path d="M84.3,148.06c0-.94-6.23-2.49-6.52-2.53a22.41,22.41,0,0,0-15,3.1,8.72,8.72,0,0,1-2.36.62c-.53.06-5.67-.31-8.51-.44-.33,0-1.16-.05-1.28.35s.61.53,1.11.66l.81.18c1.22.24,2.45.47,3.66.73,4.2.89,8.38,1.9,12.6,2.64a16.15,16.15,0,0,0,10.09-1c2-.95,5.35-3.38,5.37-4.32" transform="translate(0 0)" fill="#1e9d9d"/><path d="M165.38,147.87a15.47,15.47,0,0,0,4.22-2.68c.61-.7,1.67-1.23,1.36-2s-2.25-1.39-3.91-1-15.82,3.66-20.42,4.7-27.78,3.87-33.71,3.59-18.06-1.62-23.21-3.24S71.86,141.43,68.79,140s-3.48-.57-3.48-.57,2.29,1.7,10.19,4.58,21.29,7.55,31,9,16.75,2.51,25.64,1.48,20.67-2.8,25.63-4.39,7.63-2.27,7.63-2.27" transform="translate(0 0)" fill="#1e9d9d"/><path d="M90.73,122.45c3.91,2.8,7.92,5.48,11.7,8.45,5.17,4.07,8.61,9.25,9.06,16,.13,2-.38,2.3-2.15,1.33-6.8-3.72-11.93-9-13.91-16.63a12.9,12.9,0,0,0-3.89-6.18C90,124,88.49,122.54,87,121.08c-.15-.14-1.28-.92-.93-1.43s.92.11,1.15.25c1.21.8,3.56,2.51,3.54,2.55" transform="translate(0 0)" fill="#1e9d9d"/><path d="M137,123.5c-.14.15-2,1.45-2.34,1.65a25.67,25.67,0,0,0-7.19,6.66q-4.07,5.79,1.38,10.34a16.39,16.39,0,0,0,6.66,3.51c.39.1,1.84.18,1.86.61s-1.56.68-2,.78c-.63.15-1.49.35-2.08.45a3.87,3.87,0,0,1-3.86-1.54c-1.43-1.61-2.94-3.15-4.2-4.88-2.1-2.88-1.73-6.7.86-9.9a23.58,23.58,0,0,1,7.8-6.33c.25-.13.47-.27.68-.4s1.94-1.27,2.16-1.35.4.25.26.4" transform="translate(0 0)" fill="#1e9d9d"/><path d="M89.08,130c4.4,3.43,8,7.61,8.77,13.48.14,1.07.25,2.14.3,3.21s-.52,1.35-1.4.93c-7.26-3.44-12.33-8.94-14.61-16.65a14.29,14.29,0,0,0-4.56-6.94c-1.56-1.37-3-2.82-4.54-4.27-.22-.21-.62-.55-.35-1s.77,0,1,.15c1.2.76,2.36,1.58,3.53,2.38-.08.12,8,5.66,11.82,8.66" transform="translate(0 0)" fill="#1e9d9d"/><path d="M75.12,128.75A21.22,21.22,0,0,1,82,135.81a38.58,38.58,0,0,1,2.5,6.9c.25.77-.3,1.14-1.12.89a24,24,0,0,1-10.71-6.7,26.46,26.46,0,0,1-5.54-8.83A3.61,3.61,0,0,0,66,126.74c-2.38-1.84-4.64-3.63-7.05-5.44a3,3,0,0,1-.74-.56c-.15-.21-.36-.57-.2-.8s.55-.07.75,0c3.23,1.75,6.43,3.55,9.66,5.29,2.22,1.19,4.48,2.32,6.72,3.48" transform="translate(0 0)" fill="#1e9d9d"/><path d="M69.57,142.06a1.89,1.89,0,0,1-1.08.2c-6.41-.09-11.46-2.94-15.42-7.8-1.52-1.87-2.72-4-4.09-6a6,6,0,0,0-1.09-1.22c-1.38-1.2-2.8-2.37-4.21-3.55-.79-.66-1.61-1.31-2.4-2-.31-.27-.86-.71-.89-.88a.48.48,0,0,1,.07-.45c.14-.2.87.25,1.14.46,1.8,1.35,3.59,2.72,5.34,4.13a15.44,15.44,0,0,0,5.59,2.85c6.86,1.89,12.52,5.51,16.19,11.8,0,0,1.1,2.21.85,2.42" transform="translate(0 0)" fill="#1e9d9d"/><path d="M99.55,152.34c.43.75-3,4.34-5.2,5.9-4.32,3-9.26,3-14.22,2.69s-9.74-.79-14.61-1.2a8.35,8.35,0,0,1-1.33-.18c-.19,0-.48-.23-.49-.44s.32-.41.5-.44c.55-.1,1.11-.09,1.66-.14,2.83-.26,5.66-.48,8.48-.83a4.22,4.22,0,0,0,2.09-1,21.76,21.76,0,0,1,17.4-5.49c.58.06,1.18,0,1.76.13s3.77.68,4,1" transform="translate(0 0)" fill="#1e9d9d"/><path d="M114.64,156.4c-2.6,4.94-6.9,7.5-12.27,8.48C96,166.05,89.46,166,83,166.43c-.34,0-1,.09-1-.44s.6-.52.94-.6c3-.76,6.07-1.43,9.08-2.26a3.92,3.92,0,0,0,1.88-1.37c3.14-4,9.6-7.6,14.56-8.69a5.17,5.17,0,0,0,.8-.36l2.51.22,3.36.94a7.71,7.71,0,0,1-.46,2.53" transform="translate(0 0)" fill="#1e9d9d"/><path d="M173.06,100.51a21,21,0,0,0,4.55,3.7,73.55,73.55,0,0,0,7.21,2.2,24.37,24.37,0,0,0-2.72.09,11.13,11.13,0,0,1-3.21-.48s2.43,1.27,3.59,1.75,6.91,1.81,6.91,1.81.12.18-1.63.35a25.64,25.64,0,0,1-5.14-.46s3.61,1.61,6.32,2.5,7.35,1.19,6.89,1.35-7.15.94-14.69-2.94C177.8,108.66,171,98.66,171,98.66a8.68,8.68,0,0,1,2.09,1.85m-3-.29c.53,1,1.11,2.08,1.68,3.11,2.78,5.08,6.18,9.54,11.65,12a15.39,15.39,0,0,0,9.12,1.34,27.25,27.25,0,0,0,13.56-7.05c.21-.19.83-.51.72-.86s-.82,0-1.06.07a7.86,7.86,0,0,1-6.31-.84,13,13,0,0,1-4.71-4.44,15.25,15.25,0,0,0-7.35-5.73c-5.05-1.86-10.26-1.82-15.5-1.17-2,.25-2.73,1.74-1.8,3.56" transform="translate(0 0)" fill="#7cba3f"/><path d="M31.74,87.55a50.37,50.37,0,0,1-4.4-5.35c-1.77-2.81-3.18-5.84-4.74-8.78a1.58,1.58,0,0,1-.23-.67c0-.27-.09-.57.2-.8s.59.3.75.48c1.6,1.74,3.14,3.35,4.66,5.17a32.76,32.76,0,0,1,5.28,8.65s0,.06,0,.08c.23.49.61,1,.09,1.55s-1,.07-1.63-.33" transform="translate(0 0)" fill="#8dbe22"/><path d="M10.1,67.34a53.38,53.38,0,0,1,7.77,7.51,69.61,69.61,0,0,1,4.72,6.35,21.66,21.66,0,0,1,1.87,4.16,1.47,1.47,0,0,1-.28,1.34,1.91,1.91,0,0,1-1.57,0A12.87,12.87,0,0,1,20,84.88a43.91,43.91,0,0,1-8.56-10.27c-1.5-2.56-2.76-5.26-4.1-7.91a.92.92,0,0,1-.1-.92c.21-.29.69.1,1,.26.62.37,1.2.8,1.94,1.3" transform="translate(0 0)" fill="#8dbe22"/><path d="M79.7,26a3.66,3.66,0,1,1-1.23-4.64A3.43,3.43,0,0,1,79.7,26" transform="translate(0 0)" fill="#983e74"/><path d="M119.84,138c-1.11,1.63-3.63,1.85-5.62.49s-2.72-3.79-1.61-5.42,3.62-1.84,5.62-.48,2.72,3.78,1.61,5.41" transform="translate(0 0)" fill="#f4d41a"/><path d="M74.54,16.51C77.88,12.9,77.21,6.86,73.05,3S62.81-1,59.48,2.58s-2.66,9.65,1.5,13.5,10.23,4,13.56.43M47.85,48.43c2.26-.69,34.6-3.2,70.07,16.67,15.7,8.8,46.45,57.75,46.45,57.75s-4.16-2.44-9.64-9.21S138.91,98.32,133.6,95.19,99.37,83.41,99.37,83.41a129.87,129.87,0,0,0,13.09,0c5.77-.37,15.34,2.86,15.34,2.86s-11.4-6.48-16.87-9S78,67.47,78,67.47s-.5-.89,7.94-1.38,24.64,3.07,24.64,3.07-17-8.28-29.92-13-35.09-7-32.83-7.69M0,56.61c.17.62,2,.52,2.55.45C11.54,56,20,58,28.2,61.34c9.88,4.08,17.59,10.86,23.6,19.6,3.05,4.43,5.58,9.23,8.8,13.51,10,13.33,23.73,21.67,38.88,27.84a163.76,163.76,0,0,0,31.61,9.27,224.4,224.4,0,0,0,37.11,4,7.78,7.78,0,0,0,6.38-3.11c2.6-3.06,1.9-6.35.68-9.59a178.14,178.14,0,0,0-17.69-35.12,136.42,136.42,0,0,0-20.39-24.63,111.74,111.74,0,0,0-20.36-15.4c-16-9.32-33.41-12.62-51.64-12C54.36,36,43.85,38.5,33.49,41.51A161.25,161.25,0,0,0,2.31,54.69C1.64,55-.16,56,0,56.61" transform="translate(0 0)" fill="#46b594"/><path d="M105.93,23c-3.05,4.48-10,5.08-15.49,1.33S83,14,86,9.47,96,4.39,101.5,8.14,109,18.55,105.93,23" transform="translate(0 0)" fill="#f4d41a"/></g></svg>