<?xml version="1.0" encoding="utf-8"?>
<!-- Generator: Adobe Illustrator 24.3.0, SVG Export Plug-In . SVG Version: 6.00 Build 0)  -->
<svg version="1.1" id="Layer_1" xmlns="http://www.w3.org/2000/svg" xmlns:xlink="http://www.w3.org/1999/xlink" x="0px" y="0px"
	 viewBox="0 0 1935.8 264.5" style="enable-background:new 0 0 1935.8 264.5;" xml:space="preserve">
<style type="text/css">
	.st0{enable-background:new    ;}
	.st1{fill:#46B594;}
	.st2{clip-path:url(#SVGID_2_);}
	.st3{fill:url(#SVGID_3_);}
	.st4{clip-path:url(#SVGID_5_);}
	.st5{fill:url(#SVGID_6_);}
	.st6{clip-path:url(#SVGID_8_);}
	.st7{fill:url(#SVGID_9_);}
	.st8{clip-path:url(#SVGID_11_);}
	.st9{fill:#45B594;}
	.st10{fill:#0E5327;}
	.st11{fill:#8CBE23;}
	.st12{fill:#F4D31A;}
	.st13{fill:#229D9E;}
	.st14{fill:#983D73;}
	.st15{fill:#7CBA40;}
</style>
<g class="st0">
	<path class="st1" d="M864.7,84.1c0,17.7-5.5,31.2-16.6,40.5c-11,9.4-26.7,14-47.1,14h-14.9v58.4h-34.8V32.9h52.4
		c19.9,0,35.1,4.3,45.4,12.9C859.5,54.3,864.7,67.1,864.7,84.1z M786.1,110.2h11.5c10.7,0,18.7-2.1,24-6.3c5.3-4.2,8-10.4,8-18.5
		c0-8.2-2.2-14.2-6.7-18.1c-4.5-3.9-11.4-5.8-20.9-5.8h-15.8V110.2z"/>
	<path class="st1" d="M891.1,197.1V32.9h34.8v135.4h66.6v28.8H891.1z"/>
	<path class="st1" d="M1117,197.1l-11.9-39.1h-59.9l-11.9,39.1h-37.5l57.9-164.9h42.6l58.2,164.9H1117z M1096.7,128.8
		c-11-35.4-17.2-55.4-18.6-60.1c-1.4-4.6-2.4-8.3-3-11c-2.5,9.6-9.5,33.3-21.2,71.1H1096.7z"/>
</g>
<g class="st0">
	<path class="st1" d="M1231.1,197.1h-34.8V61.9h-44.6v-29h124v29h-44.6V197.1z"/>
</g>
<g class="st0">
	<path class="st1" d="M1329.5,197.1h-34.3V32.9h94.1v28.5h-59.9v42.3h55.7v28.4h-55.7V197.1z"/>
	<path class="st1" d="M1565.9,114.8c0,27.2-6.7,48.1-20.2,62.7c-13.5,14.6-32.8,21.9-57.9,21.9s-44.5-7.3-57.9-21.9
		c-13.5-14.6-20.2-35.6-20.2-62.9c0-27.3,6.8-48.2,20.3-62.6c13.5-14.4,32.9-21.6,58.1-21.6c25.2,0,44.5,7.3,57.9,21.8
		C1559.2,66.6,1565.9,87.5,1565.9,114.8z M1446,114.8c0,18.3,3.5,32.2,10.4,41.4c7,9.3,17.4,13.9,31.2,13.9
		c27.8,0,41.7-18.5,41.7-55.4c0-37-13.8-55.5-41.4-55.5c-13.9,0-24.3,4.7-31.3,14C1449.6,82.6,1446,96.4,1446,114.8z"/>
</g>
<g class="st0">
	<path class="st1" d="M1628.3,134.1v63h-34.8V32.9h47.8c22.3,0,38.8,4.1,49.5,12.2c10.7,8.1,16.1,20.5,16.1,37
		c0,9.7-2.7,18.2-8,25.8c-5.3,7.5-12.8,13.4-22.6,17.7c24.7,36.9,40.8,60.8,48.3,71.5H1686l-39.2-63H1628.3z M1628.3,105.8h11.2
		c11,0,19.1-1.8,24.4-5.5c5.2-3.7,7.9-9.4,7.9-17.3c0-7.8-2.7-13.3-8-16.6c-5.4-3.3-13.6-4.9-24.9-4.9h-10.6V105.8z"/>
</g>
<g class="st0">
	<path class="st1" d="M1809,197.1l-39.5-128.8h-1c1.4,26.2,2.1,43.7,2.1,52.4v76.4h-31.1V32.9h47.4l38.9,125.6h0.7l41.2-125.6h47.4
		v164.2h-32.5v-77.7c0-3.7,0.1-7.9,0.2-12.7c0.1-4.8,0.6-17.5,1.5-38.2h-1l-42.3,128.6H1809z"/>
</g>
<g>
	<defs>
		<path id="SVGID_1_" d="M18.5,31C7.7,31.1,0,37.8,0,50.8v127c0,13.1,7.8,19.8,18.6,19.8s18.6-6.7,18.6-19.8v-127
			c0-13-7.7-19.7-18.4-19.8L18.5,31z"/>
	</defs>
	<clipPath id="SVGID_2_">
		<use xlink:href="#SVGID_1_"  style="overflow:visible;"/>
	</clipPath>
	<g class="st2">
		
			<linearGradient id="SVGID_3_" gradientUnits="userSpaceOnUse" x1="671.799" y1="182.2452" x2="672.799" y2="182.2452" gradientTransform="matrix(0 160.6454 -160.6454 0 29295.5273 -107883.2344)">
			<stop  offset="0" style="stop-color:#209F9F"/>
			<stop  offset="0.7" style="stop-color:#2199BC"/>
			<stop  offset="1" style="stop-color:#79539B"/>
		</linearGradient>
		<rect x="0" y="31" class="st3" width="37.3" height="166.6"/>
	</g>
</g>
<g>
	<defs>
		<path id="SVGID_4_" d="M100.4,65.5h20c14.7,0,24.6,7.8,24.6,22.5c0,11.5-8.7,22.3-24.6,22.3h-20L100.4,65.5z M81.7,32.4
			c-9.7,0-18.6,6.7-18.6,18.6v126.8c0,13.1,7.8,19.8,18.6,19.8s18.6-6.7,18.6-19.8v-34.3h28.3c35.4,0,55-23.5,55-55.5
			c0-37-27.4-55.7-56.1-55.7L81.7,32.4z"/>
	</defs>
	<clipPath id="SVGID_5_">
		<use xlink:href="#SVGID_4_"  style="overflow:visible;"/>
	</clipPath>
	<g class="st4">
		
			<linearGradient id="SVGID_6_" gradientUnits="userSpaceOnUse" x1="671.799" y1="182.2452" x2="672.799" y2="182.2452" gradientTransform="matrix(0 160.6454 -160.6454 0 29400.2246 -107883.2344)">
			<stop  offset="0" style="stop-color:#209F9F"/>
			<stop  offset="0.7" style="stop-color:#2199BC"/>
			<stop  offset="1" style="stop-color:#79539B"/>
		</linearGradient>
		<rect x="63.1" y="32.4" class="st5" width="120.6" height="165.2"/>
	</g>
</g>
<g>
	<defs>
		<path id="SVGID_7_" d="M335.7,31c-18.4,0.1-22.5,11-31.9,40.3l-18.2,56.4h-0.5L267,71.3C257.6,42,253.4,31.1,235,31h-0.5
			c-9.4,0.1-21,4.1-24.4,23.5l-14.7,84.2c-3,17-6.2,35.7-6.2,41.2c0,8.3,6.4,17.7,17.5,17.7c16.8,0,19.8-12,21.6-24.6l11-72.7h0.5
			l25.1,80.5c3.7,12,9.2,16.8,20.5,16.8c11.3,0,16.8-4.8,20.5-16.8l25.1-80.5h0.5l11,72.7c1.8,12.6,4.8,24.6,21.6,24.6
			c11,0,17.5-9.4,17.5-17.7c0-5.5-3.2-24.2-6.2-41.2l-14.7-84.2c-3.4-19.4-15-23.4-24.4-23.5L335.7,31z"/>
	</defs>
	<clipPath id="SVGID_8_">
		<use xlink:href="#SVGID_7_"  style="overflow:visible;"/>
	</clipPath>
	<g class="st6">
		
			<linearGradient id="SVGID_9_" gradientUnits="userSpaceOnUse" x1="671.799" y1="182.2452" x2="672.799" y2="182.2452" gradientTransform="matrix(0 160.6454 -160.6454 0 29562.2188 -107883.2344)">
			<stop  offset="0" style="stop-color:#209F9F"/>
			<stop  offset="0.7" style="stop-color:#2199BC"/>
			<stop  offset="1" style="stop-color:#79539B"/>
		</linearGradient>
		<rect x="189.2" y="31" class="st7" width="192.4" height="166.6"/>
	</g>
</g>
<g>
	<defs>
		<rect id="SVGID_10_" x="0" y="31" width="714.8" height="166.8"/>
	</defs>
	<clipPath id="SVGID_11_">
		<use xlink:href="#SVGID_10_"  style="overflow:visible;"/>
	</clipPath>
	<g class="st8">
		<path class="st9" d="M420.5,167.3c-0.1-1.1,0.7-2.1,1.8-2.2c0.1,0,0.2,0,0.3,0h7.9c9.7,0,14.4,7.5,14.4,16
			c0,9.7-5.1,16.4-13.9,16.4h-8.4c-1.1,0.1-2.1-0.7-2.1-1.8c0-0.1,0-0.2,0-0.3L420.5,167.3z M424.5,194.1h5.7
			c7.6,0,10.4-6.3,10.4-12.9c0-6.6-3-12.6-10.7-12.6h-5.5L424.5,194.1z"/>
		<path class="st9" d="M463.9,193.8h9.7c1,0,1.9,0.8,1.9,1.9c0,1-0.8,1.9-1.9,1.9H462c-1.1,0.1-2.1-0.7-2.1-1.8c0-0.1,0-0.2,0-0.3
			v-28.1c-0.1-1.1,0.7-2.1,1.8-2.2c0.1,0,0.2,0,0.3,0h11.5c1,0,1.9,0.8,1.9,1.9c0,1-0.8,1.9-1.9,1.9h-9.7v10.6h8.8
			c1,0,1.9,0.8,1.9,1.9c0,1-0.8,1.9-1.9,1.9h-8.8L463.9,193.8z"/>
		<path class="st9" d="M504,194.3c4.9,0,7-2.9,8.7-2.9c1,0,1.6,0.7,1.6,1.9c0,2-4.6,4.5-10.3,4.5c-9.4,0-14.2-8.1-14.2-16.5
			c0-8.4,4.8-16.5,14.4-16.5c5.7,0,9.4,3.1,9.4,4.7c0.1,1-0.6,1.8-1.5,1.9c0,0-0.1,0-0.1,0c-1.8,0-2.7-3.2-7.7-3.2
			c-7.2,0-10.2,6.8-10.2,13C494.1,187.4,497.1,194.3,504,194.3"/>
		<path class="st9" d="M533,195.7c0,1.1-0.9,2-2,2c-1.1,0-2-0.9-2-2v-28.7c0-1.1,0.9-2,2-2c1.1,0,2,0.9,2,2V195.7z"/>
		<path class="st9" d="M565.3,168.6c0,1-0.7,1.8-1.7,1.8c0,0,0,0,0,0c-1.8,0-2.4-2.1-6.4-2.1c-3,0-5.1,1.9-5.1,4.6
			c0,7.1,15.4,3.7,15.4,14.7c0,5.4-3.9,10.2-11,10.2c-4.3,0-9-1.6-9-3.9c0-1.1,0.5-2,1.7-2c1.4,0,3.3,2.5,7.4,2.5
			c3.5,0.2,6.5-2.6,6.6-6.1c0-0.2,0-0.3,0-0.5c0-7.7-15.4-4-15.4-14.6c0-3.8,3.6-8.3,9.6-8.3C561.4,164.8,565.4,166.5,565.3,168.6"
			/>
		<path class="st9" d="M586,195.7c0,1.1-0.9,2-2,2c-1.1,0-2-0.9-2-2v-28.7c0-1.1,0.9-2,2-2c1.1,0,2,0.9,2,2V195.7z"/>
		<path class="st9" d="M615.2,164.8c9.2,0,14.2,8.1,14.2,16.5c0,8.4-5,16.5-14.2,16.5c-9.2,0-14.2-8.1-14.2-16.5
			C600.9,172.9,605.9,164.8,615.2,164.8 M615.2,194.3c7.3,0,9.9-6.8,9.9-13c0-6.2-2.6-13-9.9-13c-7.3,0-9.9,6.8-9.9,13
			C605.2,187.5,607.9,194.3,615.2,194.3"/>
		<path class="st9" d="M648.3,195.7c0,1.1-0.9,2-2,2c-1.1,0-2-0.9-2-2v-28.5c0-1.6,0.5-2.4,1.8-2.4c1.3,0,1.7,0.5,2.8,2.1l16.4,23.6
			h0.1v-23.5c0-1.1,0.9-2,2-2c1.1,0,2,0.9,2,2v28.5c0,1.6-0.5,2.4-1.8,2.4s-1.7-0.5-2.8-2.1l-16.4-23.6h-0.1V195.7z"/>
		<path class="st9" d="M701.8,168.6c0,1-0.7,1.8-1.7,1.8c0,0,0,0,0,0c-1.8,0-2.4-2.1-6.4-2.1c-3,0-5.1,1.9-5.1,4.6
			c0,7.1,15.4,3.7,15.4,14.7c0,5.4-3.9,10.2-11,10.2c-4.3,0-9-1.6-9-3.9c0-1.1,0.5-2,1.7-2c1.4,0,3.3,2.5,7.4,2.5
			c3.5,0.2,6.5-2.6,6.6-6.1c0-0.2,0-0.4,0-0.5c0-7.7-15.4-4-15.4-14.6c0-3.8,3.5-8.3,9.6-8.3C697.9,164.8,701.9,166.5,701.8,168.6"
			/>
		<path class="st10" d="M605.8,40c-6.5-0.2-11.1-0.2-15.8-0.6c-4.1-0.3-8.2-1-12.3-1.5c-1.1-0.1-2.2-0.2-3.3-0.4
			c-0.4-0.1-1.1-0.1-1.1-0.8s0.7-0.7,1.1-0.7c1.4-0.2,2.8-0.2,4.2-0.3c9.5-0.8,19-1,28.5-0.4c4.2,0.3,8.4,0.9,12.6,1.4
			c0.8,0.1,1.6,0.3,1.5,1.3c0,1-0.8,1-1.6,1.1L605.8,40"/>
		<path class="st11" d="M633.6,49.1c-0.3,0-0.6-0.2-0.8-0.4c-0.1-0.4,0-0.9,0.3-1.2c1.3-1.7,2.6-3.2,4.1-4.7
			c3.7-3.3,7.6-6.5,11.5-9.7c0.3-0.3,1.1-0.5,1.4-0.2c0.3,0.3-0.2,1-0.4,1.4c-3.6,4.4-7.7,8.5-12.2,12c-0.8,0.7-1.6,1.4-2.5,2
			C634.6,48.6,634.1,48.9,633.6,49.1"/>
		<path class="st11" d="M638.2,49.4c-0.3-0.1-0.5-0.3-0.7-0.5c0-0.3,0.1-0.7,0.3-0.9c1-0.9,2.1-1.8,3.2-2.6
			c4.1-3.2,8.5-5.9,13.2-8.1c0.5-0.2,1.4-0.7,1.9-0.9c0.5-0.2,1.4-0.8,1.8-0.4c0.4,0.4-0.4,1.2-0.9,1.6c-2,1.7-4.2,3.3-6.4,4.8
			c-3.6,2.3-7.4,4.4-11.1,6.6C639.1,49.1,638.7,49.3,638.2,49.4"/>
		<path class="st12" d="M421.4,36.4c0.3,3.1-2,5.9-5.1,6.2c-3.1,0.3-5.9-2-6.2-5.1c-0.3-3.1,2-5.9,5.1-6.2c0.2,0,0.4,0,0.5,0
			C418.7,31.1,421.2,33.4,421.4,36.4"/>
		<path class="st13" d="M458.1,68.4c0.2,2.7-1.8,5.1-4.6,5.3c-2.7,0.2-5.1-1.8-5.3-4.6s1.8-5.1,4.6-5.3c0.1,0,0.2,0,0.3,0
			C455.8,63.8,458,65.8,458.1,68.4"/>
		<path class="st13" d="M534,121.9c0.3,3.2-2.1,6-5.3,6.3c-3.2,0.3-6-2.1-6.3-5.3c-0.3-3.2,2.1-6,5.3-6.3c0.2,0,0.3,0,0.5,0
			C531.3,116.4,533.9,118.8,534,121.9"/>
		<path class="st14" d="M520.4,146.1c0,2.4-2.3,4.4-5.2,4.4c-2.9,0-5.2-2-5.2-4.4c0-2.4,2.3-4.4,5.2-4.4
			C518.1,141.7,520.4,143.7,520.4,146.1"/>
		<path class="st12" d="M551,145.6c0,4.9-4.6,8.8-10.3,8.8c-5.7,0-10.3-3.9-10.3-8.8s4.6-8.8,10.3-8.8
			C546.4,136.8,551,140.7,551,145.6"/>
		<path class="st14" d="M626.7,84c0,2.8-2.6,5.1-5.9,5.1s-5.9-2.3-5.9-5.1c0-2.8,2.7-5.1,5.9-5.1S626.7,81.2,626.7,84"/>
		<path class="st12" d="M693,80.4c0,2.5-1.7,4.6-3.8,4.6s-3.8-2.1-3.8-4.6c0-2.5,1.7-4.6,3.8-4.6S693,77.9,693,80.4"/>
		<path class="st12" d="M705.9,67.1c0,4-2.9,7.2-6.4,7.2s-6.4-3.2-6.4-7.2s2.9-7.2,6.4-7.2S705.9,63.1,705.9,67.1"/>
		<path class="st12" d="M551.6,41.9c0,5-5,9.1-11.2,9.1s-11.2-4.1-11.2-9.1s5-9.1,11.2-9.1S551.6,36.8,551.6,41.9"/>
		<path class="st10" d="M437.1,67.3c1.2,0.1,2.3,0.3,3.5,0.6c1.5,0.4,1.6,1.2,0.6,2.3c-3.4,4.2-8.4,6.9-13.8,7.3
			c-0.8,0.1-1.7,0.2-2.5,0.2c-1-0.1-1.3-0.7-0.9-1.6c0.4-0.9,0.7-1.9,1.1-2.8c1.6-3.8,4.7-5.2,8.5-5.7
			C434.6,67.5,435.6,67.4,437.1,67.3"/>
		<path class="st10" d="M465.3,147c-4.9-1.5-9.8-3.4-14.6-5.2c-0.3-0.1-1.9-0.9-1.6-1.6c0.2-0.7,0.9-0.5,1.3-0.4
			c7.9,0.7,15.7,1.5,23.1,4.6c1.2,0.5,2.3,1.1,3.4,1.8c0.4,0.3,0.9,1.1,0.7,1.3c-0.4,0.5-0.9,0.8-1.4,0.9c-0.6,0.1-1.1,0.1-1.7,0
			C471.3,148.2,468.2,147.7,465.3,147"/>
		<path class="st10" d="M470.5,72.3c-0.4,0-0.7-0.1-1-0.3c-0.3-0.2-0.6-0.6-0.6-0.9s0.5-0.6,0.8-0.6c1.5-0.1,2.9-0.2,4.4-0.1
			c6,0.6,12,1.2,18,1.9c0.4,0,1.2,0.3,1.2,0.8c0,0.5-0.8,0.7-1.2,0.7c-1.9,0.1-3.7,0-5.6,0C486.6,73.9,475.9,72.8,470.5,72.3"/>
		<path class="st10" d="M487.2,65.3c1.9,0,3.8,0,5.7,0c0.4,0,1.2,0.1,1.2,0.5c0,0.4-0.7,0.9-1.1,1c-2.1,0.3-4.1,0.5-6.2,0.7
			c-5.1,0.7-10.3,0.9-15.4,0.5c-0.3,0-0.5,0-0.8-0.1c-0.4-0.2-1.1-0.4-1.1-0.7s0.7-0.8,1.1-0.9C476.1,65.4,481.7,65,487.2,65.3"/>
		<path class="st10" d="M489,79.5c-0.6,0.2-1.1,0.2-1.7,0.2c-6.2-0.8-12.3-2.1-18.2-4c-1.2-0.4-2.4-0.8-3.5-1.2
			c-0.4-0.2-1-0.7-1-1.2s1-0.6,1.5-0.5c3.3,0.6,6.6,1.2,9.8,2c4.1,1.1,8.2,2.4,12.2,3.7c0.4,0.1,0.7,0.3,1,0.5
			C489.1,79,489.2,79.3,489,79.5"/>
		<path class="st10" d="M466.3,65.5c-0.2-0.1-0.8-0.2-0.9-0.6s0.5-0.8,0.9-0.9c5.4-1.9,11-3.2,16.7-4c1.7-0.3,3.4-0.5,5.1-0.7
			c0.5,0,1.2-0.1,1.5,0.2s-0.7,1.1-1.1,1.2c-2.2,0.8-4.5,1.5-6.7,2.1c-4.8,1-9.6,1.8-14.4,2.7C467,65.5,466.8,65.5,466.3,65.5"/>
		<path class="st10" d="M495,84.1c-0.1-0.2-0.6-0.5-0.5-1s0.8-0.4,1.2-0.4c5.7,0.7,12.8,3,18.2,4.9c1.6,0.6,3.3,1.1,4.9,1.8
			c0.4,0.2,1.2,0.4,1.2,0.9c0,0.4-1.1,0.6-1.6,0.5c-2.3-0.3-4.7-0.7-6.9-1.3c-4.7-1.4-10.9-3.5-15.6-5
			C495.7,84.4,495.5,84.3,495,84.1"/>
		<path class="st10" d="M492.9,87.8c-0.1-0.2-0.6-0.5-0.6-0.9s0.8-0.5,1.2-0.5c5.7,0.4,11.4,1.5,16.9,3.1c1.7,0.4,8.5,1.6,10.1,2.1
			c0.5,0.1,1.2,0.4,1.2,0.8c0,0.4-1,0.7-1.5,0.7c-2.3-0.2-9.9-1.1-12.1-1.6c-4.8-1-9.5-2.2-14.2-3.4C493.6,88,493.4,87.9,492.9,87.8
			"/>
		<path class="st10" d="M512.9,78.6c0.3-0.1,0.9,0.2,1.3,0.4c5.4,2.2,10.4,5.2,14.9,8.8c0.4,0.3,0.8,1.1,0.6,1.4s-1.1,0.3-1.5,0.1
			c-5.4-2.6-10.4-5.8-15-9.5c-0.2-0.2-0.4-0.4-0.6-0.7C512.6,79,512.6,78.7,512.9,78.6"/>
		<path class="st10" d="M502.7,79.5c0.5,0,1.1,0.1,1.5,0.3c6.5,1.6,12.7,4.2,18.5,7.6c0.5,0.3,1.1,1.1,1,1.5
			c-0.1,0.4-1.2,0.5-1.7,0.3c-6.6-2.1-12.9-4.9-18.8-8.4c-0.3-0.2-0.6-0.4-0.8-0.7C502.4,79.9,502.5,79.7,502.7,79.5"/>
		<path class="st10" d="M523.5,65.6c-0.2,0.3-1.2,0.1-1.5,0c-1.1-0.5-2.1-1.2-3.1-1.8c-4.2-2.9-8.2-6.1-11.8-9.8
			c-0.2-0.2-1.5-1.6-1.2-2.1c0.3-0.5,1.8,0.8,2,0.9c5.1,3,9.9,6.6,14.2,10.7C522.6,63.9,523.7,65.3,523.5,65.6"/>
		<path class="st10" d="M511.6,47.5c0.3,0,0.9,0.5,1.2,0.8c4.9,3.7,9.3,8.2,12.9,13.1c0.3,0.4,0.5,1.4,0.3,1.7
			c-0.2,0.3-1.2,0-1.5-0.3c-4.8-4.2-9.1-8.9-12.9-14c-0.2-0.3-0.3-0.5-0.4-0.8C511.2,47.8,511.3,47.4,511.6,47.5"/>
		<path class="st10" d="M505.2,58.7c1.1,0.3,2.2,0.8,3.2,1.2c5,2.1,9.7,4.6,14.2,7.5c0.6,0.4,1.8,1.3,1.3,1.7
			c-0.4,0.4-1.5,0.2-2.2,0c-5.4-2.2-10.5-4.9-15.2-8.2c-0.7-0.4-1.8-1.3-1.8-1.6C504.8,59,504.8,58.7,505.2,58.7"/>
		<path class="st10" d="M519,45.7c0.4,0.1,0.9,0.8,1.1,1.1c3.9,4.7,7.2,9.8,9.9,15.3c0.1,0.2,0.8,2,0.4,2.2
			c-0.4,0.2-1.4-0.4-1.7-0.7c-1.1-1.4-2.2-2.8-3.1-4.3c-2.2-3.7-4.4-7.5-6.6-11.3c-0.3-0.5-0.5-1.1-0.6-1.7
			C518.4,46.1,518.6,45.6,519,45.7"/>
		<path class="st11" d="M557.1,105.3c-3.3-0.9-6.7-1.5-9.8-2.9c-4.5-2-8.7-4.5-13.1-6.8c-0.3-0.1-0.6-0.4-0.8-0.6
			c-0.2-0.3-0.6-0.6-0.4-1.1s1-0.1,1.3,0c3.4,0.8,6.6,1.5,10,2.4c4.8,1.3,9.4,3.4,13.6,6.2l0.1,0.1c0.7,0.4,1.6,0.8,1.4,1.8
			S558.2,105.3,557.1,105.3"/>
		<path class="st11" d="M513.8,98.5c5.3,0.4,10.6,1.3,15.7,2.7c3.7,1.1,7.4,2.4,11,3.8c2,1,4,2.1,5.7,3.5c0.5,0.3,1,1.5,0.8,1.9
			c-0.4,0.7-1.1,1.2-1.9,1.3c-1.6,0.2-3.2,0.2-4.8,0c-6.6-0.8-13-2.7-19-5.4c-4-1.9-7.7-4.1-11.6-6.2c-0.4-0.2-0.9-0.5-0.9-1
			s0.9-0.5,1.4-0.5C511.4,98.5,512.5,98.6,513.8,98.5"/>
		<path class="st10" d="M691.9,32.9c0.7,0,0.7,1.6,0.7,2.3c-0.1,6,0.1,12-1.5,17.8c-0.2,0.8-0.5,1.5-0.9,2.2
			c-0.1,0.2-0.5,0.5-0.7,0.5c-0.3-0.1-0.6-0.4-0.7-0.7c-0.1-0.5-0.2-1-0.1-1.4c0.2-3.3,0.1-6.6,0.6-9.8c0.4-3.2,1.2-6,1.9-9.3
			C691.1,34.3,691.3,32.9,691.9,32.9"/>
		<path class="st10" d="M683.2,35.5c0.1-0.7,0.4-1.7,1.3-1.5c0.6,0.3,1,1,1.1,1.6c0.4,3.7-0.7,7.3-1.8,10.8
			c-0.2,0.4-0.6,0.7-1.1,0.8c-0.4,0-0.6-0.7-0.6-1.1c-0.1-1,0-2,0-2.9C682.1,43.3,682.8,38.1,683.2,35.5"/>
		<path class="st13" d="M599.6,126.7c-0.7-1-8.4,1.8-8.7,2c-6.1,3-10.9,7.9-13.6,14.1c-0.6,0.9-1.2,1.7-2,2.4
			c-0.5,0.4-6.2,3.8-9.3,5.7c-0.4,0.2-1.3,0.8-1.1,1.3s1,0.1,1.6-0.1c0.3-0.1,0.7-0.2,1-0.4c1.5-0.6,2.9-1.3,4.4-1.9
			c5.1-2.1,10.2-4,15.3-6.3c4-1.8,7.7-4.3,10-8.3C598.5,132.7,600.4,127.6,599.6,126.7"/>
		<path class="st13" d="M685.4,67.9c1.2-1.8,2-3.8,2.5-5.9c0.1-1.2,0.9-2.5,0-3.1c-0.9-0.6-3.4,0.1-4.8,1.8
			c-1.5,1.6-14.1,15.3-18.3,19.7c-4.1,4.4-26.6,24.1-33.1,28.1s-20.3,11.3-27,13.3c-6.7,2-23.1,6.7-27.4,7.4
			c-4.3,0.7-4.1,1.9-4.1,1.9s3.6,0.1,14.1-2.5s28-7.4,39.3-12.8c11.3-5.4,19.6-9.4,28.2-16.9s19.9-17.9,24-23.2
			S685.4,67.9,685.4,67.9"/>
		<path class="st13" d="M588,94.9c6.2,0.2,12.3,0.1,18.5,0.5c8.4,0.6,15.8,3.6,21.2,10.5c1.5,2,1.3,2.7-1.3,3
			c-9.9,1-19.1-0.9-26.8-7.6c-2.4-2-5.4-3.3-8.6-3.7c-2.7-0.5-5.3-0.9-8-1.3c-0.3,0-2-0.1-2-0.9s1.1-0.5,1.4-0.5
			C584.3,94.8,588,94.8,588,94.9"/>
		<path class="st13" d="M637.7,62.6c0,0.3-1.1,3-1.3,3.4c-1.7,3.9-2.7,8-2.8,12.2c-0.1,6.1,2.9,9.4,8.9,10c3.2,0.4,6.5,0,9.6-1.1
			c0.5-0.2,2.1-1.1,2.4-0.7s-1.2,1.8-1.5,2.3c-0.6,0.6-1.3,1.4-1.9,2c-1.6,1.5-3.2,1.6-5.2,1.1c-2.7-0.7-5.4-1.2-8-2.1
			c-4.3-1.5-6.7-5.8-6.2-11.1c0.3-4.4,1.6-8.6,3.7-12.4c0.2-0.3,0.3-0.6,0.4-0.9c0.1-0.3,1.1-2.7,1.3-3
			C637.3,62.1,637.8,62.3,637.7,62.6"/>
		<path class="st13" d="M591.7,104.1c7.1,0.5,14,2.3,19,8c0.9,1,1.8,2.1,2.6,3.2c0.8,1.1,0.4,1.8-0.8,2c-10.2,1.6-19.5-0.6-27.5-7.1
			c-2.8-2.3-6.2-3.7-9.8-4.1c-2.6-0.3-5.3-0.8-7.9-1.2c-0.4-0.1-1.1-0.1-1.1-0.8s0.8-0.6,1.2-0.6c1.8-0.1,3.6,0,5.5,0
			C572.9,103.7,585.4,103.7,591.7,104.1"/>
		<path class="st13" d="M576,112.8c4.3,0.1,8.6,0.6,12.4,2.5c2.7,1.6,5.3,3.4,7.6,5.5c0.8,0.6,0.5,1.4-0.5,1.8
			c-5.2,1.6-10.8,1.9-16.2,0.6c-4.4-1-8.6-2.8-12.3-5.4c-0.7-0.4-1.4-0.6-2.1-0.6c-3.9-0.2-7.5-0.5-11.4-0.7c-0.4,0-0.8,0-1.2-0.1
			c-0.3-0.1-0.8-0.3-0.8-0.7c0-0.4,0.5-0.5,0.8-0.5c4.7-0.5,9.4-0.9,14.1-1.4C569.6,113.6,572.8,113.2,576,112.8"/>
		<path class="st13" d="M579.7,130.9c-0.1,0.4-0.6,0.7-1,1c-6.8,4.5-14.3,5.2-22,2.9c-3-0.9-5.8-2.3-8.6-3.4c-0.6-0.3-1.3-0.4-2-0.5
			c-2.3-0.3-4.7-0.5-7-0.7c-1.3-0.1-2.6-0.2-4-0.4c-0.5,0-1.1-0.1-1.6-0.3c-0.1-0.2-0.2-0.2-0.2-0.5c0-0.3,1.1-0.4,1.5-0.3
			c2.9,0.1,5.8,0.3,8.6,0.5c2.7,0.2,5.4-0.1,8-1c8.6-2.9,17.2-3.2,25.7,0.8C577.1,129,579.8,130.5,579.7,130.9"/>
		<path class="st13" d="M618.9,120.2c1,0.5,0,6.7-1.2,10c-2.4,6.3-7.6,9.9-13.1,13.1c-5.5,3.2-10.9,6.2-16.3,9.3
			c-0.5,0.3-1,0.6-1.5,0.8c-0.2,0.1-0.7,0.1-0.8-0.1s0-0.7,0.2-0.8c0.5-0.5,1.1-0.9,1.7-1.3c2.8-2.3,5.7-4.6,8.4-7
			c0.7-0.7,1.2-1.6,1.5-2.6c1.9-7.9,7.2-14.7,14.5-18.4c0.7-0.4,1.3-0.8,2-1.1C614.7,121.6,618.5,120,618.9,120.2"/>
		<path class="st13" d="M637.8,113.6c0.8,7.1-1.9,12.9-6.9,17.8c-5.9,5.9-12.9,10.5-19.4,15.6c-0.3,0.3-1,0.8-1.4,0.3s0.3-1,0.6-1.3
			c2.7-3,5.4-5.9,8-9c0.6-0.8,1-1.8,1-2.8c0.4-6.5,4.7-15,9.2-19.7c0.2-0.3,0.4-0.7,0.6-1l2.8-1.6l4.2-1.4
			C637.1,111.4,637.5,112.4,637.8,113.6"/>
		<path class="st13" d="M490.6,40.6c0,0.4-3.1,1-3.2,1.1c-2.5,0.2-5-0.4-7.1-1.8c-0.4-0.2-0.7-0.3-1.1-0.3c-0.2-0.1-2.7,0-4.1,0
			c-0.2,0-0.5,0-0.6-0.2c-0.1-0.2,0.3-0.2,0.5-0.3l0.4-0.1c0.6-0.1,1.2-0.2,1.8-0.3c2-0.3,4.1-0.7,6.1-1c1.6-0.3,3.3,0,4.8,0.7
			C489.1,38.9,490.6,40.2,490.6,40.6"/>
		<path class="st13" d="M521.9,41.8c-0.1,0.5,0.5,1.7-3.7,0.7c-1.2-0.3-2.2-0.5-2.6-0.7c-3.6-0.9-7.4-1.4-11.1-1.6
			c-3.8,0-7.5,0.3-11.2,1c-2.5,0.7-8.7,2.4-10.2,3c-1.5,0.6-1.7,0.2-1.7,0.2c1.6-0.9,3.3-1.5,5-2c3.9-1.2,10.4-3.1,15.1-3.6
			c4.7-0.5,8.1-0.8,12.3-0.1c1.4,0.2,3,0.5,4.6,0.8C521.4,40.1,522,41.4,521.9,41.8"/>
		<path class="st13" d="M493.1,53.1c1.9-1.3,3.9-2.4,5.8-3.8c2.6-1.7,4.3-4.4,4.7-7.5c0.1-0.9-0.1-1.1-1-0.7
			c-3.3,1.4-5.9,4.2-7.1,7.6c-0.4,1.1-1.1,2.1-2,2.9l-2.3,2c-0.1,0.1-0.6,0.4-0.5,0.7c0.2,0.2,0.4,0,0.5-0.1
			C491.9,53.9,493.1,53.1,493.1,53.1"/>
		<path class="st13" d="M492.5,49.4c2.2-1.5,4-3.5,4.5-6.3c0.1-0.5,0.2-1,0.2-1.5s-0.2-0.7-0.6-0.5c-3.5,1.3-6.2,4.1-7.4,7.6
			c-0.4,1.3-1.3,2.4-2.3,3.2c-0.8,0.6-1.5,1.3-2.3,1.9c-0.1,0.1-0.3,0.2-0.2,0.4c0.1,0.2,0.4,0,0.5-0.1c0.6-0.3,1.2-0.7,1.7-1.1
			C486.6,53.2,490.6,50.8,492.5,49.4"/>
		<path class="st13" d="M485.7,49.7c1.4-0.8,2.6-1.9,3.5-3.2c0.6-1,1-2.1,1.4-3.2c0.1-0.4-0.1-0.6-0.5-0.5c-2,0.5-3.8,1.5-5.3,3
			c-1.2,1.2-2.2,2.6-2.9,4.1c-0.1,0.2-0.3,0.5-0.6,0.6c-1.2,0.8-2.3,1.6-3.5,2.4c-0.1,0.1-0.3,0.1-0.4,0.2c-0.1,0.1-0.2,0.3-0.1,0.4
			c0.1,0.1,0.3,0,0.4,0c1.6-0.8,3.2-1.5,4.8-2.3C483.5,50.8,484.6,50.3,485.7,49.7"/>
		<path class="st13" d="M483.4,43.2c-0.2-0.1-0.3-0.1-0.5-0.1c-2.9-0.1-5.7,1.1-7.6,3.4c-0.8,0.9-1.4,1.9-2.1,2.8
			c-0.2,0.2-0.3,0.4-0.5,0.6l-2.1,1.6c-0.4,0.3-0.8,0.6-1.2,0.9c-0.2,0.1-0.4,0.3-0.5,0.4s0,0.1,0,0.2c0,0.1,0.4-0.1,0.6-0.2
			c0.9-0.6,1.8-1.2,2.7-1.9c0.8-0.6,1.8-1,2.7-1.2c3.3-0.6,6.2-2.5,8-5.3C482.9,44.3,483.5,43.3,483.4,43.2"/>
		<path class="st13" d="M498,39c0.2-0.3-1.3-2.1-2.4-3c-2-1.5-4.4-1.7-6.8-1.6c-2.4,0-4.7,0.1-7,0.2c-0.2,0-0.4,0-0.6,0
			c-0.1,0-0.2,0.1-0.2,0.2c0,0.1,0.1,0.2,0.2,0.2c0.3,0.1,0.5,0.1,0.8,0.1c1.3,0.2,2.7,0.4,4,0.6c0.4,0.1,0.7,0.3,1,0.5
			c2.2,2.2,5.2,3.2,8.2,3c0.3,0,0.6,0,0.8,0C496.8,39.2,497.4,39.1,498,39"/>
		<path class="st13" d="M505.4,37.4c-1.1-2.3-3.2-3.9-5.7-4.4c-3.1-0.6-6.2-1-9.3-1.2c-0.2,0-0.5-0.1-0.5,0.2s0.3,0.3,0.4,0.3
			c1.4,0.4,2.9,0.8,4.3,1.3c0.4,0.1,0.7,0.4,0.9,0.7c1.7,2.2,4.1,3.7,6.8,4.5c0.1,0.1,0.3,0.1,0.4,0.2l1.2,0l1.6-0.4
			C505.6,38.2,505.5,37.8,505.4,37.4"/>
		<path class="st9" d="M442.1,148.8c-3-5.4-3.5-11.8-1.2-17.5c1.9-5.1,2.3-10.6,1.3-15.9c-1.9-10.3-6.9-19.3-13.3-27.4
			c-0.9-1.4-2.8-1.8-4.2-0.9c-0.3,0.2-0.6,0.4-0.8,0.7c-0.5,0.5-0.9,1.1-1.2,1.8c-1.5,3.5-3.2,7-4.5,10.7c-2.9,8-3.8,16.1-1.9,24.5
			c1.7,7.4,5.8,14,11.6,18.8c4.7,4,10.2,6.8,15.6,9.6c0.4,0.2,0.8,0.4,1.3,0.5c0.1,0,0.3-0.2,0.3-0.4c-0.3-0.5-0.7-1-1.1-1.4
			C443.5,150.8,442.8,149.8,442.1,148.8 M437.2,148.1c-0.9-0.4-11-8.9-15.5-25.9c-2-7.5,3.6-33,3.6-33c0.3,2,0.4,3.9,0.1,5.9
			c-0.3,4.1-0.1,8.3,0.7,12.3c0.6,2.6,6.5,13.9,6.5,13.9c-1.2-1.3-2.5-2.6-3.8-3.8c-1.8-1.5-3.6-5.4-3.6-5.4s1.4,5.5,2.3,7.9
			c0.9,2.4,6.6,12.9,6.6,12.9s-0.1,0.4-2.7-1.8c-2.6-2.3-6.3-8.2-6.3-8.2s2.5,7.7,4.9,13.1S438,148.5,437.2,148.1"/>
		<path class="st15" d="M419.2,73.5c0.5-0.8,0.7-1.3,1-1.8c0.5-0.9,1.1-1.8,1.7-2.6c3.6-4,8.9-6.2,14.3-6c4.1,0.1,8.1-0.8,11.7-2.5
			c2.1-1.1,4.1-2.3,6-3.7c4.8-3.3,8.4-7.9,11.8-12.6c1.1-1.5,2.2-3.1,3.1-4.8c1.2-2.2,0.3-4.2-2.2-4.7c-1.7-0.4-3.4-0.7-5.1-0.8
			c-5.9-0.5-11.8-0.2-17.6,0.9c-10.4,2.2-18.1,7.8-22.3,17.7c-2.6,6.2-3.5,10.2-3,18.8C418.7,72.1,418.9,72.8,419.2,73.5
			 M442.2,39.1c5.2-2.8,24.1-2.5,24.1-2.5c-1.4,0.6-2.8,0.9-4.3,1c-3,0.5-6,1.3-8.8,2.6c-1.8,0.9-9.4,7.4-9.4,7.4
			c0.9-1.2,1.6-2.4,2.4-3.6c1-1.4,2.2-2.7,3.6-3.8c0,0-3.8,2-5.5,3.1c-1.7,1.1-8.6,7.4-8.6,7.4s-0.3,0,1.1-2.5
			c1.6-2.3,3.3-4.4,5.3-6.3c0,0-5.3,3.3-9,6c-3.7,2.7-8.3,8.5-8,7.8C425.3,55,430.4,45.5,442.2,39.1"/>
		<path class="st15" d="M531.3,132.3c-4.1,0.1-8.1-0.8-11.7-2.5c-7.1-3.1-12.3-8.2-15-15.6c-0.5-1.3-1-2.7-1.6-4
			c-3-7-8.3-11.9-14.4-16c-8.1-5.5-17.3-8.5-26.7-11.1c-4.3-1.2-8.6-2.2-13-3.1c-2.4-0.4-4.8-0.7-7.3-0.7c-2.7-0.1-5.5,2.4-5,5.4
			c0.6,3.7,1.1,7.5,2,11.1c2,9.1,6.2,17.6,12.2,24.7c10.1,11.9,23.4,17.4,38.6,18.7c6.9,0.4,13.8,0.2,20.6-0.8
			c7.1-0.9,13.9-2.8,20.8-4.5c0.6-0.2,1.1-0.5,1.5-0.9c0-0.2,0-0.4-0.2-0.5C531.9,132.4,531.6,132.3,531.3,132.3 M505.4,131.6
			c-1.3,0.3-20,1-40-11.4c-8.8-5.5-25.4-34.5-25.4-34.5c2.1,1.5,3.9,3.4,5.3,5.5c3.4,4.3,7.3,8,11.7,11.2c3,1.9,19.5,7.7,19.5,7.7
			c-2.5-0.2-5-0.4-7.5-0.4c-3.3,0.1-8.8-2-8.8-2s6.4,4,9.5,5.6c3.1,1.6,18.8,6.5,18.8,6.5s0.3,0.5-4.6,0.6
			c-4.9,0.1-14.1-2.4-14.1-2.4s9.6,5.2,16.9,8.3S506.8,131.3,505.4,131.6"/>
		<path class="st9" d="M629.5,38.6c-3.4,4-7.8,6.5-12.6,8.2c-5.7,2.1-11.8,2.4-17.7,1c-3-0.7-6-1.7-9-2.3
			c-9.5-1.7-18.6,0.1-27.4,3.4c-5.9,2.2-11.6,5.1-17,8.5c-6.1,3.8-12,8-17.4,12.8c-1.1,1-1.6,2.4-1.5,3.8c0.1,2.3,1.7,3.4,3.5,4.3
			c6.8,3.4,13.9,6.1,21.3,8c6,1.5,12.1,2.3,18.3,2.4c4.9,0.1,9.9-0.4,14.7-1.4c10.5-2.3,19.1-7.7,26.6-15.2
			c4.3-4.5,8.1-9.5,11.1-14.9c3.3-5.6,6-11.6,8.1-17.8c0.1-0.4,0.5-1.5,0.2-1.7C630.4,37.6,629.8,38.3,629.5,38.6 M613.7,60
			c-0.7,1.2-13.4,14.9-36.3,20.4c-10.1,2.4-42.4-6.3-42.4-6.3c2.6-0.4,5.2-0.3,7.7,0.1c5.4,0.6,10.8,0.5,16.2-0.5
			c3.5-0.8,19.1-8.4,19.1-8.4c-1.9,1.6-3.8,3.3-5.6,5.1c-2.3,2.4-7.6,4.8-7.6,4.8s7.4-1.7,10.7-2.8c3.3-1.1,17.8-8.7,17.8-8.7
			s0.6,0.2-2.8,3.7c-3.4,3.5-11.7,8.4-11.7,8.4s10.5-3.2,17.8-6.2C604,66.6,614.4,58.9,613.7,60"/>
		<path class="st15" d="M646.8,76.3c1.5-0.2,3-0.5,4.5-0.8c7.3-1.4,14.1-3.8,19.2-9.5c2.8-2.9,4.6-6.6,5.2-10.6
			c0.9-6.7-0.5-13.2-3.3-19.3c-0.2-0.3-0.3-1.2-0.8-1.2s-0.3,1-0.3,1.3c0,3-1.5,5.3-3.5,7.4c-2.1,1.9-4.6,3.3-7.3,4
			c-3.9,1.2-7.4,3.5-9.9,6.7c-4.3,5.4-6.2,11.8-7.5,18.5C642.7,75.2,644.3,76.6,646.8,76.3 M648.4,72.7c2.3-1.1,4.4-2.5,6.3-4.1
			c1.2-1.1,5.5-7.9,5.5-7.9c-0.4,1.1-0.7,2.2-1,3.3c-0.4,1.3-1,2.6-1.8,3.7c0,0,2.5-2.5,3.5-3.7c1-1.2,4.9-7.7,4.9-7.7
			s0.3-0.1-0.2,2.1c-0.7,2.1-1.5,4.2-2.6,6.1c0,0,3.4-3.8,5.5-6.7s4.3-8.5,4.3-7.9s-1.7,9.1-9.3,16.8c-3.4,3.4-18.3,7.8-18.3,7.8
			C646.2,73.7,647.3,73.1,648.4,72.7"/>
		<path class="st15" d="M714.9,73.8c0-0.8-0.2-2.4-0.6-2.4c-0.3,0-0.5,0.2-0.6,0.4c-0.1,0.2-0.2,0.4-0.2,0.6
			c-1.6,6.3-5.3,11.3-10.1,15.5c-3,2.7-6.7,4.6-10.7,5.3c-2.7,0.5-5.5,1-8.2,1.5c-6.2,1.2-11.3,4.6-16,8.6
			c-6.6,5.6-11.5,12.6-16,19.9c-4.2,7.1-7.9,14.5-10.9,22.2c-1.6,3.8,0.6,7.9,4.9,8c3.9,0.1,7.7,0.3,11.6,0.3
			c7.2-0.1,14.3-1.5,21-4.2c6.4-2.5,12.3-6.3,17.3-11.1c6.5-6.5,10.7-14.4,13.7-22.9c1.9-5.5,3.2-11.3,3.9-17.1
			C714.9,90.2,714.8,82,714.9,73.8 M686.5,135c-7.8,6.8-40.5,14-40.5,14c2.1-1.5,4.4-2.7,6.9-3.4c5.1-2,9.8-4.6,14.1-7.9
			c2.7-2.3,13.1-16.3,13.1-16.3c-1,2.3-1.8,4.7-2.6,7.1c-0.9,3.2-4.5,7.8-4.5,7.8s5.7-4.9,8.2-7.4c2.4-2.5,11.8-16,11.8-16
			s0.6-0.1-0.8,4.6c-1.4,4.7-6.5,12.8-6.5,12.8s7.8-7.6,12.9-13.7c5.1-6.1,10.7-17.7,10.6-16.4S704.2,119.6,686.5,135"/>
	</g>
</g>
</svg>
