<svg xmlns="http://www.w3.org/2000/svg" width="173.16mm" height="40.39mm" viewBox="0 0 490.84 114.5"><path d="M81.52,442.38c0,9-5.37,13.59-12.79,13.59s-12.8-4.58-12.8-13.59V355.17c0-9,5.37-13.59,12.8-13.59s12.79,4.58,12.79,13.59Z" transform="translate(-55.93 -341.58)" fill="#fff"/><path d="M99.22,355.32c0-8.21,6.16-12.79,12.8-12.79h31.44c19.75,0,38.55,12.79,38.55,38.23,0,22-13.43,38.08-37.76,38.08H124.81v23.54c0,9-5.37,13.59-12.79,13.59s-12.8-4.58-12.8-13.59Zm25.59,40.77h13.75c10.9,0,16.91-7.43,16.91-15.33,0-10.11-6.8-15.48-16.91-15.48H124.81Z" transform="translate(-55.93 -341.58)" fill="#fff"/><path d="M200.18,357.69c2.37-13.43,10.43-16.11,16.91-16.11,12.79,0,15.64,7.42,22.12,27.65l12.48,38.71H252l12.49-38.71c6.48-20.23,9.32-27.65,22.12-27.65,6.48,0,14.53,2.68,16.9,16.11l10.12,57.83c2.05,11.7,4.26,24.49,4.26,28.29,0,5.68-4.42,12.16-12,12.16-11.53,0-13.58-8.21-14.85-16.9l-7.58-49.93h-.32l-17.22,55.3c-2.53,8.21-6.32,11.53-14.06,11.53s-11.54-3.32-14.07-11.53l-17.22-55.3h-.31l-7.59,49.93c-1.26,8.69-3.32,16.9-14.85,16.9-7.59,0-12-6.48-12-12.16,0-3.8,2.21-16.59,4.27-28.29Z" transform="translate(-55.93 -341.58)" fill="#fff"/><path d="M344.65,435.11a1.36,1.36,0,0,1,1.47-1.5h5.41c6.64,0,9.89,5.13,9.89,11,0,6.66-3.53,11.26-9.51,11.26h-5.79a1.35,1.35,0,0,1-1.47-1.5Zm2.75,18.41h4c5.19,0,7.13-4.35,7.13-8.89s-2.06-8.64-7.32-8.64H347.4Z" transform="translate(-55.93 -341.58)" fill="#fff"/><path d="M374.44,453.33h6.64a1.28,1.28,0,1,1,0,2.56h-7.92a1.35,1.35,0,0,1-1.47-1.5V435.11a1.36,1.36,0,0,1,1.47-1.5h7.92a1.29,1.29,0,1,1,0,2.57h-6.64v7.29h6a1.29,1.29,0,1,1,0,2.57h-6Z" transform="translate(-55.93 -341.58)" fill="#fff"/><path d="M402,453.7c3.34,0,4.82-2,6-2a1.13,1.13,0,0,1,1.1,1.28c0,1.41-3.16,3.1-7.07,3.1-6.45,0-9.77-5.54-9.77-11.33s3.32-11.33,9.92-11.33c3.95,0,6.45,2.13,6.45,3.26a1.19,1.19,0,0,1-1.13,1.31c-1.25,0-1.88-2.19-5.32-2.19-4.94,0-7,4.7-7,8.95S397.26,453.7,402,453.7Z" transform="translate(-55.93 -341.58)" fill="#fff"/><path d="M421.86,454.61a1.38,1.38,0,1,1-2.76,0V434.89a1.38,1.38,0,1,1,2.76,0Z" transform="translate(-55.93 -341.58)" fill="#fff"/><path d="M444.08,436a1.19,1.19,0,0,1-1.19,1.22c-1.22,0-1.63-1.44-4.38-1.44A3.24,3.24,0,0,0,435,439c0,4.92,10.58,2.57,10.58,10.08,0,3.69-2.69,7-7.54,7-2.94,0-6.2-1.12-6.2-2.69,0-.75.38-1.41,1.16-1.41.94,0,2.25,1.72,5.07,1.72a4.37,4.37,0,0,0,4.57-4.53c0-5.29-10.58-2.73-10.58-10,0-2.6,2.44-5.73,6.57-5.73C441.36,433.42,444.08,434.58,444.08,436Z" transform="translate(-55.93 -341.58)" fill="#fff"/><path d="M458.26,454.61a1.38,1.38,0,1,1-2.76,0V434.89a1.38,1.38,0,1,1,2.76,0Z" transform="translate(-55.93 -341.58)" fill="#fff"/><path d="M478.29,433.42c6.35,0,9.76,5.54,9.76,11.33s-3.41,11.33-9.76,11.33-9.77-5.54-9.77-11.33S471.94,433.42,478.29,433.42Zm0,20.28c5,0,6.82-4.69,6.82-8.95s-1.81-8.95-6.82-8.95-6.82,4.7-6.82,8.95S473.28,453.7,478.29,453.7Z" transform="translate(-55.93 -341.58)" fill="#fff"/><path d="M501.07,454.61a1.38,1.38,0,1,1-2.75,0V435.05c0-1.1.37-1.63,1.25-1.63s1.19.35,1.94,1.44L512.78,451h.06V434.89a1.38,1.38,0,1,1,2.76,0v19.56c0,1.1-.38,1.63-1.26,1.63s-1.19-.34-1.94-1.44l-11.26-16.18h-.07Z" transform="translate(-55.93 -341.58)" fill="#fff"/><path d="M537.82,436a1.19,1.19,0,0,1-1.19,1.22c-1.22,0-1.63-1.44-4.38-1.44a3.23,3.23,0,0,0-3.54,3.16c0,4.92,10.58,2.57,10.58,10.08,0,3.69-2.69,7-7.54,7-3,0-6.2-1.12-6.2-2.69,0-.75.38-1.41,1.16-1.41.94,0,2.25,1.72,5.07,1.72a4.37,4.37,0,0,0,4.57-4.53c0-5.29-10.58-2.73-10.58-10,0-2.6,2.44-5.73,6.57-5.73C535.1,433.42,537.82,434.58,537.82,436Z" transform="translate(-55.93 -341.58)" fill="#fff"/><path d="M471.84,347.77c-4.45-.15-7.65-.15-10.84-.39-2.83-.2-5.63-.66-8.44-1-.76-.09-1.53-.13-2.27-.28-.27-.06-.74-.09-.74-.58s.49-.47.76-.5c1-.12,1.95-.14,2.92-.21a132.79,132.79,0,0,1,19.54-.27c2.88.19,5.75.63,8.63,1,.54.06,1.07.2,1,.9s-.58.7-1.08.73Z" transform="translate(-55.93 -341.58)" fill="#fff"/><path d="M491,354a.54.54,0,0,1-.53-.31.91.91,0,0,1,.18-.82,30.13,30.13,0,0,1,2.84-3.22c2.57-2.28,5.24-4.45,7.9-6.64.21-.17.75-.34,1-.16s-.1.72-.3,1a52.26,52.26,0,0,1-8.36,8.26c-.57.45-1.12.94-1.7,1.38A2.91,2.91,0,0,1,491,354Z" transform="translate(-55.93 -341.58)" fill="#fff"/><path d="M494.12,354.17a.62.62,0,0,1-.45-.38.81.81,0,0,1,.19-.64c.7-.64,1.43-1.24,2.17-1.82a49.17,49.17,0,0,1,9.07-5.59c.33-.16.93-.49,1.27-.61s.95-.56,1.23-.25-.3.84-.59,1.07a53.4,53.4,0,0,1-4.39,3.29c-2.49,1.59-5.07,3-7.61,4.54A3.21,3.21,0,0,1,494.12,354.17Z" transform="translate(-55.93 -341.58)" fill="#fff"/><ellipse cx="285.41" cy="3.69" rx="3.9" ry="3.52" fill="#fff"/><ellipse cx="311.17" cy="25.69" rx="3.37" ry="3.14" fill="#fff"/><ellipse cx="362.66" cy="62.38" rx="3.97" ry="3.66" fill="#fff"/><ellipse cx="353.74" cy="79.04" rx="3.6" ry="3.02" fill="#fff"/><ellipse cx="371.24" cy="78.67" rx="7.05" ry="6.04" fill="#fff"/><ellipse cx="426.25" cy="36.4" rx="4.07" ry="3.53" fill="#fff"/><ellipse cx="473.23" cy="33.93" rx="2.61" ry="3.15" fill="#fff"/><ellipse cx="480.25" cy="24.77" rx="4.41" ry="4.92" fill="#fff"/><ellipse cx="371.07" cy="7.45" rx="7.68" ry="6.26" fill="#fff"/><path d="M356,366.51a18.48,18.48,0,0,1,2.38.38c1,.29,1.11.8.45,1.6a13.55,13.55,0,0,1-9.5,5,10,10,0,0,1-1.72.13c-.65-.05-.89-.46-.64-1.1s.52-1.3.79-1.95c1.07-2.58,3.22-3.6,5.82-3.93C354.3,366.59,355,366.58,356,366.51Z" transform="translate(-55.93 -341.58)" fill="#fff"/><path d="M375.37,421.21c-3.4-1-6.71-2.37-10.06-3.58-.2-.07-1.29-.65-1.13-1.13s.59-.33.87-.3c5.41.45,10.81,1,15.88,3.18a15.76,15.76,0,0,1,2.32,1.26c.27.19.59.75.49.93a1.6,1.6,0,0,1-1,.61,4.65,4.65,0,0,1-1.18,0A35.33,35.33,0,0,1,375.37,421.21Z" transform="translate(-55.93 -341.58)" fill="#fff"/><path d="M379,369.9a1.43,1.43,0,0,1-.69-.2c-.19-.15-.42-.44-.39-.63a.78.78,0,0,1,.57-.45,19.06,19.06,0,0,1,3-.05c4.12.4,8.24.85,12.35,1.32.3,0,.84.21.84.52s-.57.5-.86.52c-1.28.05-2.56,0-3.84,0C390,371,382.66,370.32,379,369.9Z" transform="translate(-55.93 -341.58)" fill="#fff"/><path d="M390.46,365.12c1.31,0,2.62,0,3.93,0,.29,0,.85.1.85.37s-.47.61-.75.65c-1.42.22-2.85.32-4.27.52a55,55,0,0,1-10.58.37,1.58,1.58,0,0,1-.54-.05c-.28-.14-.79-.28-.79-.5s.48-.57.76-.62A47.29,47.29,0,0,1,390.46,365.12Z" transform="translate(-55.93 -341.58)" fill="#fff"/><path d="M391.71,374.84a2.67,2.67,0,0,1-1.17.13,74.1,74.1,0,0,1-12.5-2.72,24.54,24.54,0,0,1-2.41-.85c-.3-.13-.69-.47-.69-.83s.71-.41,1-.36c2.25.42,4.51.8,6.71,1.39,2.83.74,5.6,1.67,8.4,2.53a2.4,2.4,0,0,1,.69.34C391.77,374.53,391.8,374.77,391.71,374.84Z" transform="translate(-55.93 -341.58)" fill="#fff"/><path d="M376.08,365.27c-.13-.09-.53-.13-.65-.43s.37-.52.63-.62a56,56,0,0,1,11.44-2.78c1.17-.19,2.35-.37,3.53-.51.32,0,.85-.11,1,.15s-.46.74-.78.85a37.53,37.53,0,0,1-4.63,1.43c-3.27.69-6.58,1.24-9.88,1.84C376.58,365.23,376.43,365.23,376.08,365.27Z" transform="translate(-55.93 -341.58)" fill="#fff"/><path d="M395.79,378c-.08-.14-.41-.36-.38-.68s.59-.29.86-.26a69.59,69.59,0,0,1,12.51,3.35c1.13.39,2.25.79,3.36,1.22.3.12.8.31.81.6s-.76.43-1.09.38a37.75,37.75,0,0,1-4.76-.92c-3.22-.93-7.51-2.42-10.7-3.44C396.25,378.19,396.12,378.13,395.79,378Z" transform="translate(-55.93 -341.58)" fill="#fff"/><path d="M394.33,380.55c-.08-.13-.43-.33-.42-.65s.56-.34.83-.32a56.34,56.34,0,0,1,11.58,2.11c1.15.3,5.83,1.12,7,1.47.31.1.82.25.85.54s-.72.48-1.06.46c-1.61-.13-6.77-.74-8.35-1.08-3.27-.7-6.52-1.54-9.77-2.33C394.81,380.72,394.67,380.66,394.33,380.55Z" transform="translate(-55.93 -341.58)" fill="#fff"/><path d="M408.05,374.23c.2-.05.61.17.89.28a42.35,42.35,0,0,1,10.23,6c.25.2.54.76.43,1s-.74.19-1,.07a53.11,53.11,0,0,1-10.31-6.56,2,2,0,0,1-.41-.46A.3.3,0,0,1,408.05,374.23Z" transform="translate(-55.93 -341.58)" fill="#fff"/><path d="M401.06,374.89a2.49,2.49,0,0,1,1.07.18,48.4,48.4,0,0,1,12.71,5.2c.32.19.74.78.66,1.06s-.82.34-1.14.24a61.76,61.76,0,0,1-12.91-5.78,2.44,2.44,0,0,1-.54-.46A.35.35,0,0,1,401.06,374.89Z" transform="translate(-55.93 -341.58)" fill="#fff"/><path d="M415.36,365.29c-.12.22-.81.07-1,0a19.64,19.64,0,0,1-2.12-1.25,51.4,51.4,0,0,1-8.07-6.72c-.13-.13-1-1.13-.82-1.47s1.22.55,1.35.63a52.06,52.06,0,0,1,9.76,7.38C414.74,364.12,415.49,365.07,415.36,365.29Z" transform="translate(-55.93 -341.58)" fill="#fff"/><path d="M407.2,352.86c.22,0,.58.33.84.53a45.18,45.18,0,0,1,8.88,9c.2.27.34.93.17,1.14s-.81,0-1-.21a56.08,56.08,0,0,1-8.83-9.58,2,2,0,0,1-.3-.59C406.91,353.1,407,352.86,407.2,352.86Z" transform="translate(-55.93 -341.58)" fill="#fff"/><path d="M402.8,360.57a18.45,18.45,0,0,1,2.22.86,63.19,63.19,0,0,1,9.77,5.14c.4.25,1.2.91.92,1.2s-1.06.14-1.49,0a54,54,0,0,1-10.45-5.63c-.46-.3-1.22-.86-1.22-1.11S402.55,360.57,402.8,360.57Z" transform="translate(-55.93 -341.58)" fill="#fff"/><path d="M412.29,351.66c.28.08.6.55.76.74a54,54,0,0,1,6.81,10.48c.07.13.54,1.37.28,1.51s-1-.3-1.15-.5a30.92,30.92,0,0,1-2.13-3c-1.55-2.56-3-5.15-4.52-7.74a3.86,3.86,0,0,1-.47-1.13C411.86,351.91,412,351.59,412.29,351.66Z" transform="translate(-55.93 -341.58)" fill="#fff"/><path d="M438.42,392.52a51.5,51.5,0,0,1-6.75-2c-3.08-1.35-6-3.08-9-4.66a1.6,1.6,0,0,1-.58-.44c-.15-.22-.4-.42-.28-.78s.67-.08.9,0c2.34.55,4.54,1,6.86,1.68a33,33,0,0,1,9.36,4.24l.08.06c.46.28,1.1.53,1,1.25S439.15,392.52,438.42,392.52Z" transform="translate(-55.93 -341.58)" fill="#fff"/><path d="M408.72,387.93a54.62,54.62,0,0,1,10.81,1.85,72.29,72.29,0,0,1,7.58,2.64,21.47,21.47,0,0,1,3.95,2.42c.34.24.68,1,.54,1.28a1.93,1.93,0,0,1-1.31.91,12.94,12.94,0,0,1-3.29,0,44.81,44.81,0,0,1-13-3.73c-2.72-1.29-5.32-2.83-8-4.29-.25-.14-.6-.36-.6-.72s.63-.31,1-.33C407.09,387.9,407.82,387.93,408.72,387.93Z" transform="translate(-55.93 -341.58)" fill="#fff"/><path d="M531,342.84c.45,0,.46,1.12.45,1.57-.09,4.1,0,8.23-1.06,12.25a10.39,10.39,0,0,1-.59,1.52c-.08.17-.35.38-.47.35a.85.85,0,0,1-.46-.47,3.27,3.27,0,0,1-.09-1c.11-2.25.1-4.52.39-6.74s.79-4.09,1.27-6.38C530.5,343.82,530.57,342.84,531,342.84Z" transform="translate(-55.93 -341.58)" fill="#fff"/><path d="M525,344.67c.09-.5.26-1.19.91-1a1.57,1.57,0,0,1,.79,1.13,17.25,17.25,0,0,1-1.26,7.41,1,1,0,0,1-.74.53c-.26,0-.41-.48-.43-.73-.06-.67,0-1.34,0-2C524.23,350,524.71,346.43,525,344.67Z" transform="translate(-55.93 -341.58)" fill="#fff"/><path d="M480.7,414.39c-1.78,2.09-3.66,4.09-5.49,6.14a3.13,3.13,0,0,0-.39.91c.33-.06.74,0,1-.19,4.49-3.52,9.25-6.7,13.33-10.73" transform="translate(-55.93 -341.58)" fill="#fff"/><path d="M467.64,407.24c-.45-.7-5.78,1.27-6,1.38a19.75,19.75,0,0,0-9.36,9.68,8.2,8.2,0,0,1-1.41,1.62c-.35.31-4.28,2.59-6.42,3.89-.24.16-.86.54-.75.9s.71.07,1.14-.08c.21-.08.45-.17.67-.27l3-1.28c3.5-1.43,7-2.77,10.48-4.32a14.28,14.28,0,0,0,6.85-5.72C466.83,411.38,468.09,407.93,467.64,407.24Z" transform="translate(-55.93 -341.58)" fill="#fff"/><path d="M526.54,366.92a13.47,13.47,0,0,0,1.75-4.05c.1-.81.61-1.72,0-2.12s-2.32.1-3.33,1.21-9.71,10.51-12.54,13.54-18.3,16.59-22.75,19.32-13.95,7.77-18.5,9.14-15.87,4.61-18.8,5.11-2.82,1.32-2.82,1.32,2.52.1,9.69-1.72,19.24-5.05,27-8.8,13.43-6.47,19.4-11.62,13.65-12.29,16.48-15.9S526.54,366.92,526.54,366.92Z" transform="translate(-55.93 -341.58)" fill="#fff"/><path d="M459.62,385.4c4.24.11,8.48.07,12.71.36,5.78.4,10.85,2.47,14.54,7.19,1.06,1.36.86,1.86-.9,2-6.8.66-13.13-.61-18.37-5.21a11.27,11.27,0,0,0-5.89-2.57c-1.83-.32-3.67-.61-5.5-.92-.18,0-1.38,0-1.38-.59s.72-.37.95-.38C457.06,385.28,459.62,385.37,459.62,385.4Z" transform="translate(-55.93 -341.58)" fill="#fff"/><path d="M493.78,363.27c0,.18-.76,2.07-.88,2.36A22.49,22.49,0,0,0,491,374c-.06,4.16,2,6.43,6.13,6.85a14.47,14.47,0,0,0,6.58-.75c.34-.12,1.43-.78,1.65-.49s-.79,1.28-1.05,1.56-.92,1-1.3,1.36a3.41,3.41,0,0,1-3.57.79c-1.83-.46-3.7-.84-5.48-1.47-2.95-1.06-4.57-4-4.27-7.63a20.73,20.73,0,0,1,2.54-8.47c.11-.22.21-.43.29-.63s.79-1.89.91-2.05S493.81,363.09,493.78,363.27Z" transform="translate(-55.93 -341.58)" fill="#fff"/><path d="M462.18,391.74c4.91.32,9.58,1.58,13.07,5.47.63.7,1.23,1.43,1.8,2.18s.29,1.24-.55,1.38a23.07,23.07,0,0,1-18.89-4.88,12.63,12.63,0,0,0-6.75-2.79c-1.82-.23-3.62-.54-5.42-.86-.27-.05-.73-.09-.73-.52s.55-.4.83-.41c1.25,0,2.5,0,3.75,0C449.29,391.42,457.9,391.46,462.18,391.74Z" transform="translate(-55.93 -341.58)" fill="#fff"/><path d="M451.39,397.73a18.55,18.55,0,0,1,8.48,1.74,34.18,34.18,0,0,1,5.25,3.78c.56.44.34,1-.38,1.21a21.19,21.19,0,0,1-11.12.42,23.33,23.33,0,0,1-8.4-3.68,3.31,3.31,0,0,0-1.48-.4c-2.65-.17-5.18-.34-7.83-.47a2.71,2.71,0,0,1-.81,0c-.22-.08-.55-.24-.55-.49s.37-.32.57-.34c3.22-.32,6.44-.6,9.65-.94C447,398.29,449.18,398,451.39,397.73Z" transform="translate(-55.93 -341.58)" fill="#fff"/><path d="M453.94,410.17c-.08.27-.42.5-.69.68-4.7,3.11-9.79,3.54-15.08,2-2-.6-4-1.56-5.94-2.33a5.32,5.32,0,0,0-1.4-.35c-1.61-.19-3.22-.34-4.82-.5-.91-.09-1.82-.15-2.73-.25a3.17,3.17,0,0,1-1.08-.19c-.1-.11-.18-.14-.18-.36s.76-.25,1.06-.24c2,.1,4,.21,5.94.36a13.33,13.33,0,0,0,5.48-.69c5.92-2,11.84-2.19,17.63.56C452.13,408.82,454,409.89,453.94,410.17Z" transform="translate(-55.93 -341.58)" fill="#fff"/><path d="M480.85,402.79c.69.34,0,4.62-.86,6.88-1.65,4.31-5.23,6.79-9,9s-7.48,4.25-11.23,6.37a7,7,0,0,1-1.06.53c-.16.06-.46.07-.56-.08s0-.45.14-.57c.34-.34.76-.61,1.13-.92,1.93-1.59,3.89-3.15,5.76-4.81a3.63,3.63,0,0,0,1-1.77,19.13,19.13,0,0,1,9.95-12.61c.45-.25.88-.56,1.34-.78S480.55,402.64,480.85,402.79Z" transform="translate(-55.93 -341.58)" fill="#fff"/><path d="M493.85,398.27c.56,4.88-1.3,8.88-4.73,12.25-4.08,4-8.84,7.21-13.33,10.73-.23.18-.7.56-1,.19s.18-.68.39-.91c1.83-2,3.71-4,5.49-6.14a3.45,3.45,0,0,0,.69-1.93c.3-4.48,3.22-10.28,6.29-13.54a4.29,4.29,0,0,0,.4-.66l1.93-1.08,2.92-1A6.76,6.76,0,0,1,493.85,398.27Z" transform="translate(-55.93 -341.58)" fill="#fff"/><path d="M392.78,348.18c0,.31-2.1.72-2.19.73a7.45,7.45,0,0,1-4.89-1.27,2.9,2.9,0,0,0-.77-.24c-.17,0-1.87,0-2.81,0-.11,0-.38,0-.42-.14s.21-.16.38-.2l.27-.05,1.22-.18c1.4-.22,2.79-.49,4.2-.66a5.36,5.36,0,0,1,3.31.49C391.71,347,392.79,347.87,392.78,348.18Z" transform="translate(-55.93 -341.58)" fill="#fff"/><path d="M414.26,348.94c-.07.38.32,1.2-2.57.47l-1.82-.47a41.11,41.11,0,0,0-7.61-1.09,41.72,41.72,0,0,0-7.71.69c-1.72.45-6,1.63-7,2s-1.15.13-1.15.13a15,15,0,0,1,3.43-1.35,61.43,61.43,0,0,1,10.36-2.46,30.19,30.19,0,0,1,8.48-.07c1,.16,2.07.36,3.14.57C413.9,347.82,414.31,348.67,414.26,348.94Z" transform="translate(-55.93 -341.58)" fill="#fff"/><path d="M394.48,356.73c1.33-.86,2.7-1.67,4-2.59a7.21,7.21,0,0,0,3.25-5.14c.07-.65-.09-.77-.69-.48a8.68,8.68,0,0,0-4.86,5.26,4.24,4.24,0,0,1-1.38,2l-1.58,1.37c-.06.05-.44.29-.33.46s.3,0,.38-.07C393.68,357.27,394.49,356.75,394.48,356.73Z" transform="translate(-55.93 -341.58)" fill="#fff"/><path d="M394.06,354.21a6.77,6.77,0,0,0,3.11-4.31,9.48,9.48,0,0,0,.15-1c0-.32-.15-.45-.44-.33a8.67,8.67,0,0,0-5.09,5.25,4.71,4.71,0,0,1-1.62,2.21c-.54.43-1.05.88-1.57,1.34-.07.07-.21.17-.13.31s.26,0,.35,0c.41-.22.8-.48,1.2-.72C390,356.83,392.74,355.13,394.06,354.21Z" transform="translate(-55.93 -341.58)" fill="#fff"/><path d="M389.44,354.4a6.91,6.91,0,0,0,2.37-2.22,12.22,12.22,0,0,0,.94-2.23c.09-.25-.08-.38-.36-.31a8,8,0,0,0-3.64,2,8.92,8.92,0,0,0-2,2.82,1.21,1.21,0,0,1-.39.42c-.82.57-1.59,1.12-2.42,1.68a1.56,1.56,0,0,0-.25.17c-.05.07-.13.19-.08.27s.18,0,.25,0l3.27-1.58C387.91,355.08,388.68,354.74,389.44,354.4Z" transform="translate(-55.93 -341.58)" fill="#fff"/><path d="M387.82,349.92a.57.57,0,0,0-.35-.08,6.42,6.42,0,0,0-5.21,2.32c-.53.59-1,1.27-1.45,1.9a2,2,0,0,1-.38.39c-.47.37-1,.74-1.44,1.1-.28.21-.56.4-.83.61a1.26,1.26,0,0,0-.31.28.15.15,0,0,0,0,.14c0,.07.29-.06.38-.13.62-.41,1.23-.84,1.83-1.27a5.22,5.22,0,0,1,1.89-.85,8.44,8.44,0,0,0,5.53-3.63S387.9,350,387.82,349.92Z" transform="translate(-55.93 -341.58)" fill="#fff"/><path d="M397.88,347c.15-.24-.9-1.48-1.62-2a7,7,0,0,0-4.65-1.12c-1.61,0-3.22.1-4.83.16a2.27,2.27,0,0,0-.45,0c-.06,0-.16.07-.16.14s.09.14.15.16.37,0,.55.07c.93.13,1.86.25,2.78.41a1.28,1.28,0,0,1,.67.37A7.22,7.22,0,0,0,396,347.3c.19,0,.39,0,.58,0A5.58,5.58,0,0,0,397.88,347Z" transform="translate(-55.93 -341.58)" fill="#fff"/><path d="M402.92,345.93a5.37,5.37,0,0,0-3.91-3,56.74,56.74,0,0,0-6.36-.83c-.11,0-.33,0-.35.13s.19.18.3.22c1,.3,2,.57,3,.89a1.28,1.28,0,0,1,.6.48,9.35,9.35,0,0,0,4.66,3.1c.09,0,.16.1.25.14l.84,0,1.12-.26A2.61,2.61,0,0,0,402.92,345.93Z" transform="translate(-55.93 -341.58)" fill="#fff"/><path d="M359.48,422.44a13.9,13.9,0,0,1-.8-12,20.19,20.19,0,0,0,.89-10.9c-1.32-7.09-4.73-13.23-9.14-18.84a2,2,0,0,0-3.38-.09,4.28,4.28,0,0,0-.81,1.21c-1.07,2.43-2.22,4.82-3.11,7.32a29.27,29.27,0,0,0-1.28,16.82,23.3,23.3,0,0,0,8,12.9,54.33,54.33,0,0,0,10.74,6.59,4.47,4.47,0,0,0,.89.33c.11,0,.23-.16.23-.28a6.64,6.64,0,0,0-.73-1A19.55,19.55,0,0,1,359.48,422.44Zm-3.37-.46c-.6-.29-7.58-6.12-10.64-17.77-1.36-5.16,2.44-22.65,2.44-22.65a13.13,13.13,0,0,1,.06,4.06,31.67,31.67,0,0,0,.48,8.48c.43,1.78,4.46,9.53,4.46,9.53A33.72,33.72,0,0,0,350.3,401a14.2,14.2,0,0,1-2.49-3.71s1,3.77,1.55,5.43,4.58,8.83,4.58,8.83-.08.3-1.87-1.26a33.56,33.56,0,0,1-4.31-5.6s1.73,5.31,3.34,9S356.7,422.27,356.11,422Z" transform="translate(-55.93 -341.58)" fill="#fff"/><path d="M343.77,370.73c.32-.58.49-.92.69-1.24a11.63,11.63,0,0,1,1.19-1.82,12.56,12.56,0,0,1,9.83-4.09,17.86,17.86,0,0,0,8.06-1.76,31.21,31.21,0,0,0,4.11-2.55,34,34,0,0,0,8.09-8.65,37.18,37.18,0,0,0,2.14-3.3,2,2,0,0,0-1.52-3.23,26.48,26.48,0,0,0-3.53-.57,43.5,43.5,0,0,0-12.1.6c-7.17,1.52-12.41,5.36-15.3,12.17-1.82,4.29-2.4,7-2.05,12.94A4,4,0,0,0,343.77,370.73Zm15.78-23.58c3.6-1.92,16.56-1.73,16.56-1.73a9.25,9.25,0,0,1-2.92.7,22,22,0,0,0-6.07,1.77,80.77,80.77,0,0,0-6.45,5.1,28,28,0,0,0,1.63-2.51,12.47,12.47,0,0,1,2.44-2.59s-2.62,1.39-3.77,2.13-5.93,5.09-5.93,5.09-.23,0,.73-1.7a29,29,0,0,1,3.63-4.35s-3.66,2.25-6.15,4.12-5.67,5.87-5.52,5.35S351.44,351.49,359.55,347.15Z" transform="translate(-55.93 -341.58)" fill="#fff"/><path d="M420.69,411.13a19.87,19.87,0,0,1-18.38-12.42c-.34-.91-.69-1.82-1.08-2.71-2.07-4.78-5.69-8.2-9.9-11-5.59-3.75-11.91-5.85-18.32-7.66-2.94-.82-5.91-1.52-8.9-2.12a28.71,28.71,0,0,0-5-.5,3.32,3.32,0,0,0-3.41,3.67c.43,2.56.76,5.14,1.35,7.65a39.91,39.91,0,0,0,8.39,17c6.93,8.2,16.07,11.92,26.54,12.83a69,69,0,0,0,14.14-.57,129.54,129.54,0,0,0,14.3-3.08,2.27,2.27,0,0,0,1-.64c0-.11,0-.3-.12-.34A2.17,2.17,0,0,0,420.69,411.13ZM403,410.64c-.91.24-13.77.67-27.49-7.81-6.07-3.76-17.42-23.69-17.42-23.69a16.35,16.35,0,0,1,3.67,3.82,39.05,39.05,0,0,0,8.06,7.67c2,1.33,13.36,5.26,13.36,5.26a51.32,51.32,0,0,0-5.19-.24,21.4,21.4,0,0,1-6-1.4s4.41,2.77,6.53,3.85,12.88,4.48,12.88,4.48.18.36-3.17.41-9.72-1.65-9.72-1.65,6.62,3.58,11.64,5.69S403.88,410.41,403,410.64Z" transform="translate(-55.93 -341.58)" fill="#fff"/><path d="M488.16,346.78a19.88,19.88,0,0,1-8.62,5.66,21.07,21.07,0,0,1-12.15.65c-2.08-.47-4.12-1.19-6.21-1.57-6.51-1.19-12.75.08-18.82,2.36a65.81,65.81,0,0,0-11.71,5.81,89,89,0,0,0-11.88,8.83,3.08,3.08,0,0,0-1,2.63c.07,1.59,1.16,2.36,2.38,3a71.2,71.2,0,0,0,14.61,5.46,54.19,54.19,0,0,0,12.58,1.69,44,44,0,0,0,10.08-1,37.35,37.35,0,0,0,18.28-10.4,50.86,50.86,0,0,0,7.66-10.24,63.77,63.77,0,0,0,5.53-12.23c.1-.29.37-1.05.15-1.18S488.32,346.6,488.16,346.78Zm-10.87,14.71c-.47.81-9.22,10.25-24.9,14-6.94,1.67-29.09-4.31-29.09-4.31a16.27,16.27,0,0,1,5.29.09,39.39,39.39,0,0,0,11.13-.32c2.38-.52,13.14-5.79,13.14-5.79s-2.24,1.85-3.83,3.52A21.05,21.05,0,0,1,443.8,372s5.06-1.18,7.33-1.92,12.24-6,12.24-6,.39.12-1.94,2.54-8,5.74-8,5.74,7.19-2.18,12.22-4.26S477.76,360.68,477.29,361.49Z" transform="translate(-55.93 -341.58)" fill="#fff"/><path d="M500.05,372.61c1-.16,2-.37,3.06-.57,5-1,9.66-2.62,13.2-6.55a13.48,13.48,0,0,0,3.57-7.28A23.92,23.92,0,0,0,517.61,345c-.1-.23-.21-.84-.53-.84s-.22.69-.22.91a7,7,0,0,1-2.4,5.06,11.5,11.5,0,0,1-5,2.76,13.45,13.45,0,0,0-6.77,4.62c-2.92,3.74-4.28,8.12-5.14,12.69C497.22,371.91,498.28,372.9,500.05,372.61Zm1.06-2.45a18.25,18.25,0,0,0,4.32-2.82,64.48,64.48,0,0,0,3.78-5.46,21.78,21.78,0,0,0-.65,2.3,9.7,9.7,0,0,1-1.27,2.57s1.72-1.7,2.43-2.54,3.37-5.31,3.37-5.31.19,0-.14,1.46a23.06,23.06,0,0,1-1.76,4.19s2.31-2.6,3.79-4.63,3-5.84,3-5.41-1.13,6.25-6.4,11.53c-2.34,2.33-12.56,5.37-12.56,5.37A7.55,7.55,0,0,1,501.11,370.16Z" transform="translate(-55.93 -341.58)" fill="#fff"/><path d="M546.76,371c0-.53-.13-1.68-.39-1.68a.46.46,0,0,0-.4.29,1.38,1.38,0,0,0-.17.42,21.28,21.28,0,0,1-6.92,10.67,15,15,0,0,1-7.37,3.65c-1.89.34-3.78.66-5.66,1-4.28.82-7.78,3.13-11,5.89-4.52,3.84-7.87,8.65-11,13.65a103.33,103.33,0,0,0-7.49,15.27c-1.07,2.61.39,5.44,3.39,5.53,2.64.08,5.29.22,7.94.18A39.15,39.15,0,0,0,522.16,423,35.73,35.73,0,0,0,534,415.33a40.77,40.77,0,0,0,9.41-15.72,56.75,56.75,0,0,0,2.69-11.75A132.51,132.51,0,0,0,546.76,371ZM527.3,413c-5.39,4.69-27.79,9.62-27.79,9.62a16.47,16.47,0,0,1,4.73-2.36,39.25,39.25,0,0,0,9.72-5.43c1.88-1.56,9-11.2,9-11.2s-1.13,2.67-1.77,4.88a21.15,21.15,0,0,1-3.12,5.35s4-3.39,5.61-5.1,8.09-11,8.09-11,.4-.07-.54,3.15-4.45,8.79-4.45,8.79,5.38-5.26,8.87-9.43,7.32-12.17,7.27-11.23S539.46,402.45,527.3,413Z" transform="translate(-55.93 -341.58)" fill="#fff"/></svg>